<?xml version="1.0" encoding="UTF-8"?>
<svg xmlns="http://www.w3.org/2000/svg" width="1024" height="1024" viewBox="0 0 108 108">
  <defs>
    <linearGradient id="bg" gradientUnits="userSpaceOnUse" x1="0" y1="0" x2="108" y2="108">
      <stop offset="0" stop-color="#7C5CD6"/>
      <stop offset="1" stop-color="#5B3FA6"/>
    </linearGradient>
  </defs>
  <rect x="0" y="0" width="108" height="108" fill="url(#bg)"/>
  <!-- Foreground zoomed ~1.3x around center to match Android's adaptive-icon crop -->
  <g transform="translate(54,57) scale(1.3) translate(-54,-57)">
    <!-- Left fanned card -->
    <path transform="rotate(-13 54 60)" fill="#C3AEEF"
          d="M43,34 L65,34 Q70,34 70,39 L70,75 Q70,80 65,80 L43,80 Q38,80 38,75 L38,39 Q38,34 43,34 Z"/>
    <!-- Right fanned card -->
    <path transform="rotate(13 54 60)" fill="#C3AEEF"
          d="M43,34 L65,34 Q70,34 70,39 L70,75 Q70,80 65,80 L43,80 Q38,80 38,75 L38,39 Q38,34 43,34 Z"/>
    <!-- Front card -->
    <path fill="#FFFFFF"
          d="M43,34 L65,34 Q70,34 70,39 L70,75 Q70,80 65,80 L43,80 Q38,80 38,75 L38,39 Q38,34 43,34 Z"/>
    <!-- Mana-pip accent -->
    <path fill="#6A4FC0" d="M48,57 a6,6 0 1,0 12,0 a6,6 0 1,0 -12,0 Z"/>
  </g>
</svg>
